<svg width="214" height="20" viewBox="0 0 214 20" fill="none" xmlns="http://www.w3.org/2000/svg">
<path d="M7.02857 0C10.839 0 12.991 2.23541 12.991 5.2819C12.991 7.2997 11.7867 8.92186 10.148 9.47577C12.0433 9.95054 13.6031 11.6914 13.6031 14.1246C13.6031 17.3096 11.2339 19.5846 7.56164 19.5846H0V0H7.02857ZM6.45602 8.091C8.19342 8.091 9.23981 7.12166 9.23981 5.63798C9.23981 4.1543 8.2724 3.20475 6.43628 3.20475H3.77095V8.091H6.47577H6.45602ZM6.83114 16.3996C8.687 16.3996 9.77288 15.4303 9.77288 13.8675C9.77288 12.3046 8.78572 11.2364 6.87063 11.2364H3.73146V16.3996H6.8114H6.83114Z" fill="white"/>
<path d="M14.531 19.5846V4.57764e-05H18.2032V19.5846H14.531Z" fill="white"/>
<path d="M33.1094 12.7992C33.1094 16.9733 30.0492 20 26.0018 20C21.9545 20 18.8943 16.9535 18.8943 12.7992C18.8943 8.64494 21.9545 5.59845 26.0018 5.59845C30.0492 5.59845 33.1094 8.60537 33.1094 12.7992ZM29.4371 12.7992C29.4371 10.2275 27.7787 8.94167 25.9821 8.94167C24.1854 8.94167 22.527 10.2473 22.527 12.7992C22.527 15.3512 24.1854 16.6568 25.9821 16.6568C27.7787 16.6568 29.4371 15.3512 29.4371 12.7992Z" fill="white"/>
<path d="M37.0777 12.7992C37.0777 15.2523 38.6769 16.637 40.5525 16.637C42.4281 16.637 43.356 15.3907 43.6719 14.3423L46.89 15.4105C46.278 17.6657 44.1655 20 40.5525 20C36.5643 20 33.4054 16.9535 33.4054 12.7992C33.4054 8.64494 36.4854 5.59845 40.434 5.59845C44.126 5.59845 46.2187 7.89321 46.811 10.188L43.5337 11.2958C43.198 10.1682 42.3491 9.00102 40.5327 9.00102C38.7163 9.00102 37.0777 10.3462 37.0777 12.819V12.7992Z" fill="white"/>
<path d="M55.1032 11.7113L60.6511 19.5847H56.1496L52.5564 14.4017L51.0362 16.004V19.6044H47.3639V9.15527e-05H51.0362V11.0584L55.7153 5.99416H60.5129L55.0835 11.7113H55.1032Z" fill="white"/>
<path d="M71.5888 5.99411L74.5108 14.7577L77.0182 5.99411H80.6509L76.4061 19.5846H72.7339L69.5552 10.3067L66.4358 19.5846H62.7241L58.4003 5.99411H62.2503L64.7576 14.7181L67.6994 5.99411H71.5493H71.5888Z" fill="white"/>
<path d="M94.0961 12.7992C94.0961 16.9733 91.0359 20 86.9885 20C82.9412 20 79.881 16.9535 79.881 12.7992C79.881 8.64494 82.9412 5.59845 86.9885 5.59845C91.0359 5.59845 94.0961 8.60537 94.0961 12.7992ZM90.4238 12.7992C90.4238 10.2275 88.7654 8.94167 86.9688 8.94167C85.1721 8.94167 83.5137 10.2473 83.5137 12.7992C83.5137 15.3512 85.1721 16.6568 86.9688 16.6568C88.7654 16.6568 90.4238 15.3512 90.4238 12.7992Z" fill="white"/>
<path d="M103.059 9.63406C102.645 9.55493 102.289 9.51536 101.954 9.51536C100.078 9.51536 98.4592 10.4254 98.4592 13.3531V19.5648H94.787V5.99409H98.3407V8.0119C99.17 6.2117 101.046 5.8754 102.191 5.8754C102.487 5.8754 102.763 5.89518 103.04 5.93475V9.63406H103.059Z" fill="white"/>
<path d="M111.352 11.7113L116.899 19.5847H112.398L108.805 14.4017L107.284 16.004V19.6044H103.612V9.15527e-05H107.284V11.0584L111.964 5.99416H116.761L111.332 11.7113H111.352Z" fill="white"/>
<path d="M119.051 15.1138C119.13 16.182 119.94 17.1909 121.539 17.1909C122.743 17.1909 123.336 16.5579 123.336 15.8457C123.336 15.2325 122.921 14.7379 121.875 14.5203L120.078 14.1049C117.452 13.5312 116.268 11.9486 116.268 10.0495C116.268 7.61625 118.42 5.59845 121.342 5.59845C125.192 5.59845 126.495 8.05147 126.653 9.51536L123.592 10.2077C123.474 9.41645 122.901 8.38777 121.361 8.38777C120.394 8.38777 119.624 8.96146 119.624 9.73297C119.624 10.4056 120.118 10.8012 120.868 10.9397L122.803 11.3551C125.468 11.909 126.83 13.5312 126.83 15.5292C126.83 17.7448 125.113 20 121.559 20C117.472 20 116.07 17.3492 115.912 15.8062L119.051 15.1138Z" fill="white"/>
<line x1="133.33" y1="6.00003" x2="133.33" y2="20" stroke="url(#paint0_linear_7448_23062)"/>
<path d="M141.932 9.10203H143.527L146.519 17H145.1L144.418 15.196H141.008L140.337 17H138.94L141.932 9.10203ZM142.702 10.664L141.47 13.964H143.956L142.702 10.664ZM148.785 13.942V17H147.377V9.10203H150.534C152.294 9.10203 153.394 9.92703 153.394 11.522C153.394 13.095 152.294 13.942 150.534 13.942H148.785ZM148.785 12.732H150.457C151.469 12.732 152.008 12.292 152.008 11.522C152.008 10.741 151.469 10.312 150.457 10.312H148.785V12.732ZM155.735 9.10203V17H154.327V9.10203H155.735ZM159.494 17V9.10203H162.134C164.587 9.10203 166.105 10.642 166.105 13.051C166.105 15.46 164.587 17 162.134 17H159.494ZM160.869 15.79H162.134C163.762 15.79 164.719 14.712 164.719 13.051C164.719 11.379 163.762 10.312 162.123 10.312H160.869V15.79ZM166.854 13.051C166.854 10.653 168.394 8.98103 170.528 8.98103C172.662 8.98103 174.202 10.653 174.202 13.051C174.202 15.449 172.662 17.121 170.528 17.121C168.394 17.121 166.854 15.449 166.854 13.051ZM172.794 13.051C172.794 11.335 171.859 10.224 170.528 10.224C169.197 10.224 168.262 11.335 168.262 13.051C168.262 14.767 169.197 15.878 170.528 15.878C171.859 15.878 172.794 14.767 172.794 13.051ZM176.351 13.051C176.351 14.756 177.275 15.878 178.573 15.878C179.497 15.878 180.168 15.317 180.41 14.393L181.73 14.844C181.268 16.241 180.168 17.121 178.573 17.121C176.472 17.121 174.943 15.449 174.943 13.051C174.943 10.653 176.472 8.98103 178.573 8.98103C180.168 8.98103 181.268 9.86103 181.73 11.258L180.41 11.709C180.168 10.785 179.497 10.224 178.573 10.224C177.275 10.224 176.351 11.346 176.351 13.051ZM181.884 15.46L182.962 14.569C183.512 15.427 184.337 15.922 185.239 15.922C186.13 15.922 186.801 15.515 186.801 14.756C186.801 13.953 185.976 13.843 184.799 13.557C183.611 13.271 182.335 12.919 182.335 11.379C182.335 9.91603 183.589 8.98103 185.184 8.98103C186.537 8.98103 187.593 9.61903 188.121 10.444L187.087 11.335C186.647 10.653 186.064 10.18 185.14 10.18C184.293 10.18 183.71 10.609 183.71 11.236C183.71 11.929 184.315 12.072 185.382 12.314C186.658 12.6 188.187 12.897 188.187 14.613C188.187 16.164 186.823 17.121 185.195 17.121C183.842 17.121 182.5 16.472 181.884 15.46Z" fill="url(#paint1_linear_7448_23062)"/>
<defs>
<linearGradient id="paint0_linear_7448_23062" x1="131.83" y1="5.99981" x2="133.82" y2="6.14194" gradientUnits="userSpaceOnUse">
<stop stop-color="#B39AFA"/>
<stop offset="1" stop-color="#A47DFB"/>
</linearGradient>
<linearGradient id="paint1_linear_7448_23062" x1="138.829" y1="19.9999" x2="143.88" y2="-7.05736" gradientUnits="userSpaceOnUse">
<stop stop-color="#B39AFA"/>
<stop offset="1" stop-color="#A47DFB"/>
</linearGradient>
</defs>
</svg>
